<svg width="137" height="70" viewBox="0 0 137 70" fill="none" xmlns="http://www.w3.org/2000/svg">
    <rect x="20" y="19" width="32" height="32" rx="16" fill="url(#paint0_linear_5_2406)" />
    <path
        d="M61.8111 43V26.6364H66.2109V29.4915H66.3814C66.6797 28.4759 67.1804 27.7088 67.8835 27.1903C68.5866 26.6648 69.3963 26.402 70.3125 26.402C70.5398 26.402 70.7848 26.4162 71.0476 26.4446C71.3104 26.473 71.5412 26.5121 71.7401 26.5618V30.5888C71.527 30.5249 71.2322 30.468 70.8558 30.4183C70.4794 30.3686 70.1349 30.3438 69.8224 30.3438C69.1548 30.3438 68.5582 30.4893 68.0327 30.7805C67.5142 31.0646 67.1023 31.4624 66.7969 31.9737C66.4986 32.4851 66.3494 33.0746 66.3494 33.7422V43H61.8111ZM80.7821 43.3196C79.0989 43.3196 77.65 42.9787 76.4355 42.2969C75.2282 41.608 74.2978 40.6349 73.6444 39.3778C72.9909 38.1136 72.6642 36.6186 72.6642 34.8928C72.6642 33.2095 72.9909 31.7322 73.6444 30.4609C74.2978 29.1896 75.2175 28.1989 76.4036 27.4886C77.5968 26.7784 78.9959 26.4233 80.601 26.4233C81.6806 26.4233 82.6855 26.5973 83.6159 26.9453C84.5534 27.2862 85.3702 27.8011 86.0662 28.4901C86.7694 29.179 87.3162 30.0455 87.7069 31.0895C88.0975 32.1264 88.2928 33.3409 88.2928 34.733V35.9794H74.4753V33.1669H84.0208C84.0208 32.5135 83.8787 31.9347 83.5946 31.4304C83.3105 30.9261 82.9164 30.532 82.4121 30.2479C81.915 29.9567 81.3361 29.8111 80.6756 29.8111C79.9867 29.8111 79.3759 29.9709 78.8432 30.2905C78.3176 30.603 77.9057 31.0256 77.6074 31.5582C77.3091 32.0838 77.1564 32.6697 77.1493 33.3161V35.9901C77.1493 36.7997 77.2985 37.4993 77.5968 38.0888C77.9022 38.6783 78.3319 39.1328 78.8858 39.4524C79.4398 39.772 80.0968 39.9318 80.8567 39.9318C81.361 39.9318 81.8226 39.8608 82.2417 39.7188C82.6607 39.5767 83.0194 39.3636 83.3176 39.0795C83.6159 38.7955 83.8432 38.4474 83.9995 38.0355L88.1969 38.3125C87.9838 39.321 87.5471 40.2017 86.8865 40.9545C86.2331 41.7003 85.388 42.2827 84.351 42.7017C83.3212 43.1136 82.1316 43.3196 80.7821 43.3196ZM91.2544 43V26.6364H95.5797V29.5234H95.7715C96.1124 28.5646 96.6806 27.8082 97.476 27.2543C98.2715 26.7003 99.2232 26.4233 100.331 26.4233C101.453 26.4233 102.409 26.7038 103.197 27.2649C103.985 27.8189 104.511 28.5717 104.774 29.5234H104.944C105.278 28.5859 105.882 27.8366 106.755 27.2756C107.636 26.7074 108.676 26.4233 109.877 26.4233C111.404 26.4233 112.643 26.9098 113.595 27.8828C114.553 28.8487 115.033 30.2195 115.033 31.995V43H110.505V32.8899C110.505 31.9808 110.264 31.299 109.781 30.8445C109.298 30.3899 108.694 30.1626 107.97 30.1626C107.146 30.1626 106.503 30.4254 106.041 30.951C105.58 31.4695 105.349 32.1548 105.349 33.0071V43H100.949V32.794C100.949 31.9915 100.718 31.3523 100.257 30.8764C99.802 30.4006 99.2019 30.1626 98.4561 30.1626C97.9519 30.1626 97.4973 30.2905 97.0925 30.5462C96.6948 30.7947 96.3787 31.1463 96.1444 31.6009C95.91 32.0483 95.7928 32.5739 95.7928 33.1776V43H91.2544ZM118.618 43V26.6364H123.156V43H118.618ZM120.898 24.527C120.223 24.527 119.644 24.3033 119.161 23.8558C118.685 23.4013 118.447 22.858 118.447 22.2259C118.447 21.6009 118.685 21.0646 119.161 20.6172C119.644 20.1626 120.223 19.9354 120.898 19.9354C121.572 19.9354 122.148 20.1626 122.623 20.6172C123.106 21.0646 123.348 21.6009 123.348 22.2259C123.348 22.858 123.106 23.4013 122.623 23.8558C122.148 24.3033 121.572 24.527 120.898 24.527ZM135.495 26.6364V30.0455H125.641V26.6364H135.495ZM127.878 22.7159H132.417V37.9716C132.417 38.3906 132.48 38.7173 132.608 38.9517C132.736 39.179 132.914 39.3388 133.141 39.4311C133.375 39.5234 133.645 39.5696 133.951 39.5696C134.164 39.5696 134.377 39.5518 134.59 39.5163C134.803 39.4737 134.966 39.4418 135.08 39.4205L135.794 42.7976C135.566 42.8686 135.247 42.9503 134.835 43.0426C134.423 43.142 133.922 43.2024 133.333 43.2237C132.239 43.2663 131.28 43.1207 130.456 42.7869C129.64 42.4531 129.004 41.9347 128.549 41.2315C128.095 40.5284 127.871 39.6406 127.878 38.5682V22.7159Z"
        fill="#0E1E2F" />
    <defs>
        <linearGradient id="paint0_linear_5_2406" x1="28" y1="45" x2="48" y2="19" gradientUnits="userSpaceOnUse">
            <stop stop-color="#1165EF" />
            <stop offset="1" stop-color="#5696FF" />
        </linearGradient>
    </defs>
</svg>